<?xml version="1.0" standalone="no"?>
<!DOCTYPE svg PUBLIC "-//W3C//DTD SVG 20010904//EN"
 "http://www.w3.org/TR/2001/REC-SVG-20010904/DTD/svg10.dtd">
<svg version="1.0" xmlns="http://www.w3.org/2000/svg"
 width="64.000000pt" height="64.000000pt" viewBox="0 0 64.000000 64.000000"
 preserveAspectRatio="xMidYMid meet">

<g transform="translate(0.000000,64.000000) scale(0.100000,-0.100000)"
fill="#000000" stroke="none">
<path d="M262 630 c-166 -34 -278 -192 -252 -355 9 -58 29 -105 43 -105 6 0
25 12 44 26 18 14 43 27 54 29 12 3 31 12 41 22 28 25 189 32 209 10 12 -13
18 -13 42 -1 20 11 32 12 48 4 31 -17 20 -50 -29 -87 -42 -32 -47 -33 -137
-33 l-93 0 -26 -50 c-14 -27 -26 -52 -26 -55 0 -2 26 -12 57 -21 139 -40 293
25 360 153 17 32 34 76 37 98 8 54 -8 146 -36 202 -58 116 -207 189 -336 163z
m123 -60 c11 -12 16 -29 13 -44 -4 -19 0 -26 19 -30 22 -6 23 -11 23 -86 0
-67 -3 -80 -16 -80 -9 0 -18 9 -21 20 -4 17 -14 20 -58 20 -44 0 -54 -3 -58
-20 -3 -11 -12 -20 -21 -20 -15 0 -16 12 -14 83 3 75 5 82 24 85 17 2 20 8 16
28 -6 30 22 64 53 64 12 0 30 -9 40 -20z"/>
</g>
</svg>
