<?xml version="1.0" standalone="no"?>
<!DOCTYPE svg PUBLIC "-//W3C//DTD SVG 20010904//EN"
 "http://www.w3.org/TR/2001/REC-SVG-20010904/DTD/svg10.dtd">
<svg version="1.0" xmlns="http://www.w3.org/2000/svg"
 width="64.000000pt" height="64.000000pt" viewBox="0 0 64.000000 64.000000"
 preserveAspectRatio="xMidYMid meet">

<g transform="translate(0.000000,64.000000) scale(0.100000,-0.100000)"
fill="#000000" stroke="none">
<path d="M200 612 c-8 -3 -32 -16 -52 -29 -41 -25 -48 -53 -23 -87 12 -16 12
-23 -6 -57 -17 -34 -24 -39 -54 -39 -41 0 -65 -29 -65 -80 0 -51 24 -80 65
-80 30 0 37 -5 54 -39 18 -34 18 -41 6 -57 -26 -35 -18 -62 27 -90 49 -31 86
-34 104 -8 26 38 35 44 64 44 29 0 38 -6 64 -44 18 -26 55 -23 104 8 31 19 42
33 42 51 0 13 -4 27 -10 30 -15 9 -12 42 5 75 13 24 22 30 50 30 41 0 65 29
65 80 0 51 -24 80 -65 80 -30 0 -37 5 -54 39 -18 34 -18 41 -6 57 26 34 18 62
-24 88 -59 38 -96 38 -113 1 -20 -45 -95 -46 -115 -2 -12 25 -38 37 -63 29z
m190 -180 c74 -46 85 -144 24 -206 -53 -52 -135 -52 -188 0 -111 111 31 289
164 206z"/>
</g>
</svg>
