<?xml version="1.0" standalone="no"?>
<!DOCTYPE svg PUBLIC "-//W3C//DTD SVG 20010904//EN"
 "http://www.w3.org/TR/2001/REC-SVG-20010904/DTD/svg10.dtd">
<svg version="1.0" xmlns="http://www.w3.org/2000/svg"
 width="64.000000pt" height="64.000000pt" viewBox="0 0 64.000000 64.000000"
 preserveAspectRatio="xMidYMid meet">

<g transform="translate(0.000000,64.000000) scale(0.100000,-0.100000)"
fill="#000000" stroke="none">
<path d="M364 621 c-75 -34 -122 -124 -109 -208 l7 -46 -132 -132 -131 -132 3
-49 3 -49 49 -3 c60 -4 86 16 86 65 0 31 2 33 34 33 41 0 76 37 76 81 0 26 3
29 33 29 23 0 41 8 58 26 21 22 29 25 71 19 155 -22 273 131 209 270 -46 99
-158 141 -257 96z m167 -34 c105 -70 108 -206 6 -281 -23 -17 -43 -21 -107
-21 -72 0 -81 -2 -107 -27 -21 -20 -39 -28 -66 -28 -36 0 -37 -1 -37 -38 0
-48 -14 -62 -62 -62 -39 0 -43 -5 -50 -70 -3 -21 -9 -25 -40 -28 -37 -3 -38
-2 -38 30 0 29 16 49 128 161 l127 127 0 79 c0 88 13 117 75 159 46 31 124 31
171 -1z"/>
<path d="M432 518 c-24 -31 -23 -57 3 -83 26 -26 52 -27 83 -3 17 14 15 63 -4
82 -19 19 -68 21 -82 4z m63 -24 c18 -18 16 -33 -7 -47 -35 -22 -66 21 -36 51
16 16 23 15 43 -4z"/>
<path d="M540 390 c0 -5 5 -10 10 -10 6 0 10 5 10 10 0 6 -4 10 -10 10 -5 0
-10 -4 -10 -10z"/>
<path d="M490 355 c-14 -8 -38 -14 -53 -15 -16 0 -26 -4 -22 -10 15 -24 125 3
125 30 0 14 -21 12 -50 -5z"/>
</g>
</svg>
