<?xml version="1.0" standalone="no"?>
<!DOCTYPE svg PUBLIC "-//W3C//DTD SVG 20010904//EN"
 "http://www.w3.org/TR/2001/REC-SVG-20010904/DTD/svg10.dtd">
<svg version="1.0" xmlns="http://www.w3.org/2000/svg"
 width="64.000000pt" height="64.000000pt" viewBox="0 0 64.000000 64.000000"
 preserveAspectRatio="xMidYMid meet">

<g transform="translate(0.000000,64.000000) scale(0.100000,-0.100000)"
fill="#000000" stroke="none">
<path d="M247 622 c-10 -10 -17 -26 -17 -35 0 -14 -10 -17 -49 -17 -74 0 -101
-13 -101 -50 l0 -30 240 0 240 0 0 30 c0 37 -27 50 -101 50 -41 0 -49 3 -49
18 0 34 -32 52 -92 52 -40 0 -59 -5 -71 -18z m131 -39 c3 -10 -13 -13 -57 -13
-57 0 -71 6 -54 24 12 12 106 2 111 -11z"/>
<path d="M124 358 c4 -51 9 -128 13 -171 l6 -77 40 0 40 0 -6 37 c-3 21 -9 89
-13 151 -6 97 -5 112 8 112 19 0 25 -29 33 -165 8 -122 11 -135 35 -135 18 0
20 10 22 148 3 123 5 147 18 147 13 0 15 -24 18 -147 2 -138 4 -148 22 -148
24 0 27 13 35 135 8 136 14 165 33 165 13 0 14 -15 8 -112 -4 -62 -10 -130
-13 -150 l-6 -38 40 0 40 0 6 77 c4 43 9 120 13 171 l7 92 -203 0 -203 0 7
-92z"/>
<path d="M150 57 c0 -49 25 -57 172 -57 118 0 137 2 151 18 10 10 17 28 17 40
0 22 -2 22 -170 22 l-170 0 0 -23z"/>
</g>
</svg>
