<?xml version="1.0" standalone="no"?>
<!DOCTYPE svg PUBLIC "-//W3C//DTD SVG 20010904//EN"
 "http://www.w3.org/TR/2001/REC-SVG-20010904/DTD/svg10.dtd">
<svg version="1.0" xmlns="http://www.w3.org/2000/svg"
 width="64.000000pt" height="64.000000pt" viewBox="0 0 64.000000 64.000000"
 preserveAspectRatio="xMidYMid meet">

<g transform="translate(0.000000,64.000000) scale(0.100000,-0.100000)"
fill="#000000" stroke="none">
<path d="M174 619 c-70 -27 -137 -99 -158 -170 -20 -65 -20 -92 -1 -155 22
-75 67 -128 137 -163 68 -34 144 -40 208 -17 35 13 35 13 96 -45 34 -32 73
-61 88 -65 36 -9 71 11 87 47 16 40 0 73 -66 139 l-54 53 16 39 c23 59 13 163
-21 223 -67 114 -208 162 -332 114z m201 -73 c85 -46 126 -158 91 -250 -30
-79 -114 -136 -202 -136 -49 0 -132 47 -162 92 -34 52 -42 148 -18 200 53 111
182 153 291 94z"/>
</g>
</svg>
