<?xml version="1.0" standalone="no"?>
<!DOCTYPE svg PUBLIC "-//W3C//DTD SVG 20010904//EN"
 "http://www.w3.org/TR/2001/REC-SVG-20010904/DTD/svg10.dtd">
<svg version="1.0" xmlns="http://www.w3.org/2000/svg"
 width="64.000000pt" height="64.000000pt" viewBox="0 0 64.000000 64.000000"
 preserveAspectRatio="xMidYMid meet">

<g transform="translate(0.000000,64.000000) scale(0.100000,-0.100000)"
fill="#000000" stroke="none">
<path d="M51 626 c-26 -15 -50 -51 -51 -78 0 -16 11 -18 90 -18 l90 0 0 -85
c0 -50 4 -85 10 -85 17 0 12 196 -5 230 l-16 30 171 0 c168 0 171 0 195 -25
l25 -24 0 -231 0 -230 -100 0 c-94 0 -100 -1 -100 -20 0 -12 -11 -32 -25 -45
-32 -33 -78 -33 -112 1 -27 27 -37 27 -27 0 14 -37 57 -46 214 -46 165 0 197
8 218 55 19 42 15 55 -18 55 l-30 0 0 225 c0 242 -4 266 -51 291 -39 20 -442
20 -478 0z m104 -31 c40 -39 32 -45 -55 -45 -49 0 -80 4 -80 10 0 23 50 60 80
60 19 0 40 -9 55 -25z m465 -515 c0 -6 -11 -22 -25 -35 -23 -24 -31 -25 -134
-25 l-111 0 17 35 17 35 118 0 c75 0 118 -4 118 -10z"/>
<path d="M270 520 c0 -6 43 -10 110 -10 67 0 110 4 110 10 0 6 -43 10 -110 10
-67 0 -110 -4 -110 -10z"/>
<path d="M270 450 c0 -6 43 -10 110 -10 67 0 110 4 110 10 0 6 -43 10 -110 10
-67 0 -110 -4 -110 -10z"/>
<path d="M275 390 c-4 -6 33 -10 105 -10 72 0 109 4 105 10 -3 6 -50 10 -105
10 -55 0 -102 -4 -105 -10z"/>
<path d="M116 319 c-82 -64 -71 -175 21 -220 38 -19 50 -20 82 -11 87 27 126
122 79 192 -13 19 -35 40 -48 47 -39 20 -103 16 -134 -8z m150 -33 c56 -56 41
-136 -32 -171 -73 -35 -154 20 -154 104 0 51 54 101 110 101 34 0 48 -6 76
-34z"/>
<path d="M180 286 c0 -7 -9 -16 -20 -19 -45 -12 -12 -67 40 -67 28 0 21 -24
-8 -28 -13 -2 -25 3 -28 12 -3 9 -10 16 -15 16 -17 0 -9 -23 16 -46 l26 -24
25 24 c35 32 29 60 -15 66 -44 6 -54 30 -13 30 17 0 32 -6 35 -12 2 -7 7 -10
11 -7 10 10 -5 39 -20 39 -8 0 -14 7 -14 15 0 8 -4 15 -10 15 -5 0 -10 -6 -10
-14z"/>
<path d="M300 320 c0 -6 38 -10 95 -10 57 0 95 4 95 10 0 6 -38 10 -95 10 -57
0 -95 -4 -95 -10z"/>
<path d="M340 250 c0 -6 32 -10 75 -10 43 0 75 4 75 10 0 6 -32 10 -75 10 -43
0 -75 -4 -75 -10z"/>
<path d="M345 190 c-4 -6 22 -10 70 -10 48 0 74 4 70 10 -3 6 -35 10 -70 10
-35 0 -67 -4 -70 -10z"/>
</g>
</svg>
