<?xml version="1.0" standalone="no"?>
<!DOCTYPE svg PUBLIC "-//W3C//DTD SVG 20010904//EN"
 "http://www.w3.org/TR/2001/REC-SVG-20010904/DTD/svg10.dtd">
<svg version="1.0" xmlns="http://www.w3.org/2000/svg"
 width="225.000000pt" height="225.000000pt" viewBox="0 0 225.000000 225.000000"
 preserveAspectRatio="xMidYMid meet">

<g transform="translate(0.000000,225.000000) scale(0.100000,-0.100000)"
fill="#000000" stroke="none">
<path d="M1250 1609 c0 -5 5 -7 10 -4 6 3 10 8 10 11 0 2 -4 4 -10 4 -5 0 -10
-5 -10 -11z"/>
<path d="M1217 1603 c-13 -13 -7 -33 11 -32 9 0 12 3 5 5 -7 3 -9 12 -6 20 5
15 1 18 -10 7z"/>
<path d="M1430 1598 c0 -4 18 -8 40 -8 34 0 41 -4 46 -25 4 -18 1 -32 -11 -45
-23 -25 -15 -34 12 -15 12 8 19 23 18 37 -1 13 -3 32 -4 44 -1 17 -8 20 -51
20 -27 1 -50 -3 -50 -8z"/>
<path d="M1287 1578 c-75 -26 -67 -35 9 -12 33 10 65 19 72 20 8 1 16 5 20 8
12 13 -46 3 -101 -16z"/>
<path d="M1163 1582 c-8 -5 -9 -13 -3 -22 8 -13 10 -12 10 3 0 9 5 17 11 17 5
0 7 -4 4 -10 -3 -5 -1 -10 4 -10 6 0 11 7 11 15 0 16 -18 19 -37 7z"/>
<path d="M1552 1570 c0 -14 2 -19 5 -12 2 6 2 18 0 25 -3 6 -5 1 -5 -13z"/>
<path d="M1131 1555 c-1 -14 -4 -16 -9 -8 -10 16 -52 -11 -52 -33 0 -22 21
-17 27 7 3 11 9 16 12 10 10 -16 33 4 28 25 -4 18 -5 18 -6 -1z"/>
<path d="M1568 1505 c-20 -30 -34 -55 -32 -55 9 0 49 45 47 53 -2 4 2 7 9 7 6
0 8 3 5 7 -4 3 -2 12 5 20 6 7 9 15 6 18 -2 2 -20 -20 -40 -50z"/>
<path d="M1200 1539 c0 -5 5 -7 10 -4 6 3 10 8 10 11 0 2 -4 4 -10 4 -5 0 -10
-5 -10 -11z"/>
<path d="M1158 1524 c-38 -20 -36 -28 2 -9 17 9 30 18 30 20 0 7 -1 6 -32 -11z"/>
<path d="M1051 1504 c0 -11 3 -14 6 -6 3 7 2 16 -1 19 -3 4 -6 -2 -5 -13z"/>
<path d="M1079 1479 l-24 -20 30 17 c39 24 40 24 28 24 -6 0 -21 -9 -34 -21z"/>
<path d="M1425 1453 c-11 -9 -52 -31 -92 -49 -64 -30 -98 -54 -77 -54 11 0
166 77 188 93 10 8 15 16 10 20 -5 3 -18 -2 -29 -10z"/>
<path d="M979 1433 l-24 -28 28 24 c25 23 32 31 24 31 -2 0 -14 -12 -28 -27z"/>
<path d="M1470 1415 c-31 -23 -32 -25 -12 -25 13 0 20 4 17 10 -3 6 3 10 15
10 12 0 19 4 15 9 -3 5 3 12 12 14 12 3 13 5 3 5 -8 1 -31 -10 -50 -23z"/>
<path d="M970 1385 c-6 -8 -10 -19 -8 -26 2 -6 9 0 16 15 13 29 10 33 -8 11z"/>
<path d="M1400 1370 c-13 -9 -13 -10 0 -9 8 0 24 4 35 9 l20 9 -20 0 c-11 0
-27 -4 -35 -9z"/>
<path d="M1310 1316 c4 -4 16 -4 26 2 16 9 14 10 -8 9 -15 -1 -23 -6 -18 -11z"/>
<path d="M1271 1304 c0 -11 3 -14 6 -6 3 7 2 16 -1 19 -3 4 -6 -2 -5 -13z"/>
<path d="M1674 1286 c-38 -17 -64 -52 -64 -84 0 -15 -7 -26 -20 -29 -11 -3
-20 -9 -20 -13 0 -5 -3 -15 -6 -24 -4 -11 -1 -16 10 -16 9 0 16 -5 16 -12 0
-14 -49 -276 -56 -300 -5 -16 2 -18 53 -18 l58 0 30 163 30 162 48 3 c42 3 47
5 47 28 0 21 -4 24 -40 24 -35 0 -40 3 -40 23 0 38 16 51 59 50 32 -2 43 3 52
18 6 12 8 24 4 27 -13 13 -131 12 -161 -2z"/>
<path d="M490 1260 c-79 -15 -131 -61 -150 -130 -17 -64 11 -106 100 -150 51
-26 60 -35 60 -67 0 -59 -93 -84 -155 -43 -37 24 -41 25 -48 3 -2 -10 -8 -26
-12 -35 -18 -45 161 -66 235 -28 81 41 122 152 81 218 -12 18 -38 40 -58 49
-57 26 -93 53 -93 69 0 25 47 64 77 64 15 0 42 -9 60 -20 34 -20 36 -19 53 24
8 23 7 28 -13 35 -37 13 -100 19 -137 11z"/>
<path d="M798 1263 c7 -3 16 -2 19 1 4 3 -2 6 -13 5 -11 0 -14 -3 -6 -6z"/>
<path d="M1038 1253 c6 -2 18 -2 25 0 6 3 1 5 -13 5 -14 0 -19 -2 -12 -5z"/>
<path d="M763 1193 c9 -2 23 -2 30 0 6 3 -1 5 -18 5 -16 0 -22 -2 -12 -5z"/>
<path d="M1002 1162 c-156 -62 -208 -292 -81 -358 25 -12 50 -15 107 -12 77 5
92 14 92 55 0 21 -1 22 -36 7 -43 -18 -90 -11 -104 16 -14 25 -13 104 2 152 6
22 24 53 39 69 22 24 35 29 71 29 24 0 49 -5 56 -12 15 -15 18 -11 26 28 7 30
5 31 -31 38 -59 9 -94 6 -141 -12z"/>
<path d="M1325 1174 c-76 -20 -85 -25 -85 -55 l0 -29 36 15 c20 8 52 15 70 15
28 0 35 -4 40 -26 8 -33 -17 -55 -84 -73 -97 -26 -142 -73 -142 -151 0 -56 26
-80 88 -80 27 0 57 7 70 16 20 14 24 14 44 0 35 -25 103 -21 122 6 22 30 20
48 -4 48 -11 0 -20 1 -20 3 0 1 9 48 20 105 25 129 25 164 1 186 -20 18 -116
30 -156 20z m40 -226 c-4 -24 -13 -53 -21 -65 -16 -26 -55 -31 -73 -9 -17 21
6 75 43 97 49 30 59 26 51 -23z"/>
<path d="M701 1118 c-6 -29 -20 -105 -31 -168 -11 -63 -23 -125 -25 -137 -5
-22 -2 -23 49 -23 43 0 56 4 60 18 4 15 66 349 66 358 0 2 -24 4 -54 4 l-55 0
-10 -52z"/>
<path d="M460 711 c0 -5 5 -13 10 -16 6 -3 10 -2 10 4 0 5 -4 13 -10 16 -5 3
-10 2 -10 -4z"/>
<path d="M1163 695 c0 -8 4 -12 9 -9 5 3 6 10 3 15 -9 13 -12 11 -12 -6z"/>
<path d="M820 640 c0 -5 5 -10 11 -10 5 0 7 5 4 10 -3 6 -8 10 -11 10 -2 0 -4
-4 -4 -10z"/>
</g>
</svg>
